<svg xmlns="http://www.w3.org/2000/svg" version="1.1" xmlns:xlink="http://www.w3.org/1999/xlink" xmlns:svgjs="http://svgjs.dev/svgjs" width="1000" height="1000" viewBox="0 0 1000 1000"><rect width="1000" height="1000" fill="#ffffff"></rect><g transform="matrix(0.7,0,0,0.7,150.4998337648521,207.2872069218099)"><svg viewBox="0 0 295 247" data-background-color="#333366" preserveAspectRatio="xMidYMid meet" height="837" width="1000" xmlns="http://www.w3.org/2000/svg" xmlns:xlink="http://www.w3.org/1999/xlink"><g id="tight-bounds" transform="matrix(1,0,0,1,-0.21064418158033504,-0.10000018721123638)"><svg viewBox="0 0 295.42126271163954 247.2" height="247.2" width="295.42126271163954"><g><svg viewBox="0 0 395.52 330.95973899290954" height="247.2" width="295.42126271163954"><g transform="matrix(1,0,0,1,0,241.95864505830474)"><svg viewBox="0 0 395.52 89.0010939346048" height="89.0010939346048" width="395.52"><g id="textblocktransform"><svg viewBox="0 0 395.52 89.0010939346048" height="89.0010939346048" width="395.52" id="textblock"><g><rect width="105.34547923389822" height="4.32895442266207" y="72.00370910471179" fill="#000000" data-fill-palette-color="tertiary"></rect><rect width="105.34547923389822" height="4.32895442266207" y="72.00370910471179" x="290.17452076610175" fill="#000000" data-fill-palette-color="tertiary"></rect></g><g><svg viewBox="0 0 395.52 48.00293727689954" height="48.00293727689954" width="395.52"><g transform="matrix(1,0,0,1,0,0)"><svg width="395.52" viewBox="3.200000047683716 -35.25 294.1299743652344 35.70000076293945" height="48.00293727689954" data-palette-color="#ffffff"><path d="M3.2 0L3.2-35.25 17.55-35.25Q23.4-35.25 27.63-33.15 31.85-31.05 34.1-27.08 36.35-23.1 36.35-17.65L36.35-17.65Q36.35-12.15 34.13-8.18 31.9-4.2 27.68-2.1 23.45 0 17.55 0L17.55 0 3.2 0ZM12.4-7.4L16.9-7.4Q22.1-7.4 24.65-9.95 27.2-12.5 27.2-17.65L27.2-17.65Q27.2-22.8 24.65-25.33 22.1-27.85 16.9-27.85L16.9-27.85 12.4-27.85 12.4-7.4ZM62-35.25L72.45-35.25 57.55-15.7 57.55 0 48.35 0 48.35-15.7 33.55-35.25 43.9-35.25 52.9-23 62-35.25ZM95.25-15.1L95.25-35.25 103.84-35.25 103.84 0 97.05 0 80.95-20.15 80.95 0 72.4 0 72.4-35.25 79.1-35.25 95.25-15.1ZM146.19 0L137.09 0 133.94-7.3 118.34-7.3 115.19 0 105.94 0 122.39-35.25 129.69-35.25 146.19 0ZM126.14-25.5L121.29-14.2 130.99-14.2 126.14-25.5ZM166.24-15.2L176.79-35.25 183.89-35.25 183.89 0 175.89 0 175.89-18.5 169.09-5.85 163.19-5.85 156.44-18.2 156.39 0 148.39 0 148.39-35.25 155.64-35.25 166.24-15.2ZM226.34 0L217.24 0 214.09-7.3 198.49-7.3 195.34 0 186.09 0 202.54-35.25 209.84-35.25 226.34 0ZM206.29-25.5L201.44-14.2 211.14-14.2 206.29-25.5ZM251.29-15.1L251.29-35.25 259.89-35.25 259.89 0 253.09 0 236.99-20.15 236.99 0 228.44 0 228.44-35.25 235.14-35.25 251.29-15.1ZM281.68 0.45Q274.03 0.45 270.06-3.45 266.08-7.35 266.08-14.85L266.08-14.85 266.08-35.25 275.08-35.25 275.08-14.5Q275.08-10.7 276.78-8.65 278.48-6.6 281.68-6.6L281.68-6.6Q284.88-6.6 286.58-8.65 288.28-10.7 288.28-14.5L288.28-14.5 288.28-35.25 297.33-35.25 297.33-14.85Q297.33-7.4 293.31-3.48 289.28 0.45 281.68 0.45L281.68 0.45Z" opacity="1" transform="matrix(1,0,0,1,0,0)" fill="#000000" class="wordmark-text-0" data-fill-palette-color="primary" id="text-0"></path></svg></g></svg></g><g transform="matrix(1,0,0,1,105.34547923389822,59.335278697480874)"><svg viewBox="0 0 184.82904153220355 29.665815237123912" height="29.665815237123912" width="184.82904153220355"><g transform="matrix(1,0,0,1,8,0)"><svg width="168.82904153220355" viewBox="4 -35.599998474121094 256.9200134277344 45.14999771118164" height="29.665815237123912" data-palette-color="#ff6699"><path d="M21.95-2.85L21.95 0 4 0 4-33.7 7.1-33.7 7.1-2.85 21.95-2.85ZM30.75-25.35L30.75 0 27.7 0 27.7-25.35 30.75-25.35ZM30.72-34.98Q31.35-34.35 31.35-33.45 31.35-32.55 30.72-31.95 30.1-31.35 29.2-31.35 28.3-31.35 27.7-31.95 27.1-32.55 27.1-33.45 27.1-34.35 27.7-34.98 28.3-35.6 29.2-35.6 30.1-35.6 30.72-34.98ZM58.2-25.35L58.2-1.95Q58.2 3.8 55.1 6.68 52 9.55 47.1 9.55L47.1 9.55Q42.75 9.55 39.7 8.1L39.7 8.1 39.7 5.1Q42.8 6.65 46.85 6.65L46.85 6.65Q50.65 6.65 52.9 4.58 55.15 2.5 55.15-1.95L55.15-1.95 55.15-5.25Q52.6-0.6 47.55-0.6L47.55-0.6Q43.15-0.6 40.07-3.85 37-7.1 37-12.65L37-12.65Q37-18.35 39.82-22.05 42.65-25.75 47.25-25.75L47.25-25.75Q52.7-25.75 55.15-20.9L55.15-20.9 55.15-25.35 58.2-25.35ZM40.2-12.8L40.2-12.8Q40.2-8.25 42.5-5.88 44.8-3.5 47.6-3.5L47.6-3.5Q50.45-3.5 52.8-5.73 55.15-7.95 55.15-12.55L55.15-12.55Q55.15-17.8 52.9-20.33 50.65-22.85 47.85-22.85L47.85-22.85Q44.3-22.85 42.25-20.05 40.2-17.25 40.2-12.8ZM84.64-17.7L84.64 0 81.59 0 81.59-16.75Q81.59-19.7 80.09-21.25 78.59-22.8 76.14-22.8L76.14-22.8Q73.04-22.8 70.79-20.43 68.54-18.05 68.54-14L68.54-14 68.54 0 65.49 0 65.49-35.35 68.54-35.35 68.54-21Q70.84-25.75 76.59-25.75L76.59-25.75Q80.24-25.75 82.44-23.5 84.64-21.25 84.64-17.7L84.64-17.7ZM104.09-3.8L104.09-0.7Q102.64 0.25 100.74 0.25L100.74 0.25Q93.54 0.25 93.54-7.15L93.54-7.15 93.54-22.75 89.39-22.75 89.39-25.35 93.54-25.35 93.54-31.7 96.64-31.7 96.64-25.35 103.89-25.35 103.89-22.75 96.64-22.75 96.64-7Q96.64-2.65 100.69-2.65L100.69-2.65Q102.69-2.65 104.09-3.8L104.09-3.8ZM141.54-8.7L141.54-8.7Q141.54-4.3 138.59-1.98 135.64 0.35 131.04 0.35L131.04 0.35Q125.84 0.35 122.19-1.85L122.19-1.85 122.19-5.3Q123.69-4.15 126.06-3.4 128.44-2.65 130.89-2.65L130.89-2.65Q134.44-2.65 136.41-4.2 138.39-5.75 138.39-8.65L138.39-8.65Q138.39-10.85 136.89-12.23 135.39-13.6 132.54-14.85L132.54-14.85Q132.14-15.05 130.79-15.63 129.44-16.2 128.89-16.45 128.34-16.7 127.19-17.3 126.04-17.9 125.51-18.35 124.99-18.8 124.19-19.55 123.39-20.3 123.04-21.05 122.69-21.8 122.39-22.83 122.09-23.85 122.09-25L122.09-25Q122.09-29.25 125.14-31.63 128.19-34 132.59-34L132.59-34Q136.79-34 139.59-32.5L139.59-32.5 139.59-29.05Q138.39-29.85 136.44-30.4 134.49-30.95 132.64-30.95L132.64-30.95Q129.29-30.95 127.29-29.38 125.29-27.8 125.29-25.2L125.29-25.2Q125.29-23.85 125.81-22.8 126.34-21.75 127.59-20.88 128.84-20 129.76-19.53 130.69-19.05 132.59-18.25L132.59-18.25Q134.34-17.5 135.24-17.07 136.14-16.65 137.54-15.75 138.94-14.85 139.66-13.98 140.39-13.1 140.96-11.73 141.54-10.35 141.54-8.7ZM166.73-4.35L166.73-1.25Q163.73 0.25 159.73 0.25L159.73 0.25Q154.08 0.25 150.56-3.28 147.03-6.8 147.03-12.55L147.03-12.55Q147.03-18.65 150.13-22.15 153.23-25.65 158.18-25.65L158.18-25.65Q162.83-25.65 165.58-22.6 168.33-19.55 168.33-14L168.33-14Q168.33-12.3 168.13-11.3L168.13-11.3 150.23-11.3Q150.58-7.1 153.13-4.88 155.68-2.65 159.88-2.65L159.88-2.65Q164.18-2.65 166.73-4.35L166.73-4.35ZM158.08-22.8L158.08-22.8Q154.88-22.8 152.73-20.55 150.58-18.3 150.23-14.1L150.23-14.1 165.18-14.1 165.18-15.25Q165.18-18.7 163.26-20.75 161.33-22.8 158.08-22.8ZM192.68-4.35L192.68-1.25Q189.68 0.25 185.68 0.25L185.68 0.25Q180.03 0.25 176.51-3.28 172.98-6.8 172.98-12.55L172.98-12.55Q172.98-18.65 176.08-22.15 179.18-25.65 184.13-25.65L184.13-25.65Q188.78-25.65 191.53-22.6 194.28-19.55 194.28-14L194.28-14Q194.28-12.3 194.08-11.3L194.08-11.3 176.18-11.3Q176.53-7.1 179.08-4.88 181.63-2.65 185.83-2.65L185.83-2.65Q190.13-2.65 192.68-4.35L192.68-4.35ZM184.03-22.8L184.03-22.8Q180.83-22.8 178.68-20.55 176.53-18.3 176.18-14.1L176.18-14.1 191.13-14.1 191.13-15.25Q191.13-18.7 189.21-20.75 187.28-22.8 184.03-22.8ZM203.53-35.35L203.53 0 200.48 0 200.48-35.35 203.53-35.35ZM218.33-25.35L207.98-13.3 218.68 0 214.88 0 204.28-13.3 214.58-25.35 218.33-25.35ZM241.73-4.35L241.73-1.25Q238.72 0.25 234.72 0.25L234.72 0.25Q229.08 0.25 225.55-3.28 222.03-6.8 222.03-12.55L222.03-12.55Q222.03-18.65 225.13-22.15 228.22-25.65 233.18-25.65L233.18-25.65Q237.83-25.65 240.58-22.6 243.33-19.55 243.33-14L243.33-14Q243.33-12.3 243.13-11.3L243.13-11.3 225.22-11.3Q225.58-7.1 228.13-4.88 230.68-2.65 234.88-2.65L234.88-2.65Q239.18-2.65 241.73-4.35L241.73-4.35ZM233.08-22.8L233.08-22.8Q229.88-22.8 227.72-20.55 225.58-18.3 225.22-14.1L225.22-14.1 240.18-14.1 240.18-15.25Q240.18-18.7 238.25-20.75 236.33-22.8 233.08-22.8ZM252.57-14.15L252.57 0 249.52 0 249.52-25.35 252.57-25.35 252.57-21.05Q254.67-25.65 259.67-25.65L259.67-25.65Q260.02-25.65 260.92-25.55L260.92-25.55 260.92-22.45Q259.92-22.75 258.92-22.75L258.92-22.75Q256.22-22.75 254.4-20.08 252.57-17.4 252.57-14.15L252.57-14.15Z" opacity="1" transform="matrix(1,0,0,1,0,0)" fill="#000000" class="slogan-text-1" data-fill-palette-color="secondary" id="text-1"></path></svg></g></svg></g></svg></g></svg></g><g transform="matrix(1,0,0,1,88.11301889142895,0)"><svg viewBox="0 0 219.29396221714208 219.29396221714208" height="219.29396221714208" width="219.29396221714208"><g><svg></svg></g><g id="icon-0"><svg viewBox="0 0 219.29396221714208 219.29396221714208" height="219.29396221714208" width="219.29396221714208"><g><path d="M0 109.647c0-60.556 49.091-109.647 109.647-109.647 60.556 0 109.647 49.091 109.647 109.647 0 60.556-49.091 109.647-109.647 109.647-60.556 0-109.647-49.091-109.647-109.647zM109.647 214.965c58.166 0 105.318-47.152 105.318-105.318 0-58.166-47.152-105.318-105.318-105.318-58.166 0-105.318 47.152-105.318 105.318 0 58.166 47.152 105.318 105.318 105.318z" data-fill-palette-color="tertiary" fill="#000000" stroke="transparent"></path></g><g transform="matrix(1,0,0,1,43.81784386731155,43.81784386731155)"><svg viewBox="0 0 131.65827448251898 131.65827448251898" height="131.65827448251898" width="131.65827448251898"><g><svg xmlns="http://www.w3.org/2000/svg" xmlns:xlink="http://www.w3.org/1999/xlink" version="1.1" x="0" y="0" viewBox="0 0 64 64" enable-background="new 0 0 64 64" xml:space="preserve" height="131.65827448251898" width="131.65827448251898" class="icon-s-0" data-fill-palette-color="accent" id="s-0"><g fill="#ffffff" data-fill-palette-color="accent"><path d="M54.441 64H64c0 0-29.299-15.669-32-40.392C29.298 48.331 0 64 0 64h9.56c7.064-2.438 17.038-14.625 17.038-14.625C23.065 58.428 17.87 64 17.87 64H32h14.128c0 0-5.193-5.572-8.727-14.625C37.402 49.375 47.375 61.563 54.441 64z" fill="#000000" data-fill-palette-color="accent"></path><polygon points="23.419,26.407 32,20.437 40.58,26.407 37.553,16.401 45.883,10.086 35.432,9.873 32,0 28.567,9.873 18.117,10.086    26.446,16.401  " fill="#000000" data-fill-palette-color="accent"></polygon></g></svg></g></svg></g></svg></g></svg></g><g></g></svg></g><defs></defs></svg><rect width="295.42126271163954" height="247.2" fill="none" stroke="none" visibility="hidden"></rect></g></svg></g></svg>